<?xml version="1.0" encoding="UTF-8"?>
<!DOCTYPE svg PUBLIC "-//W3C//DTD SVG 1.1//EN" "http://www.w3.org/Graphics/SVG/1.1/DTD/svg11.dtd">
<!-- Creator: CorelDRAW -->
<svg xmlns="http://www.w3.org/2000/svg" xml:space="preserve" width="16.5354in" height="23.3858in" style="shape-rendering:geometricPrecision; text-rendering:geometricPrecision; image-rendering:optimizeQuality; fill-rule:evenodd; clip-rule:evenodd"
viewBox="0 0 16.5354 23.3858"
 xmlns:xlink="http://www.w3.org/1999/xlink">
 <defs>
  <style type="text/css">
   <![CDATA[
    .fil0 {fill:none}
    .fil1 {fill:darkgray}
    .fil2 {fill:#C6C6C6}
   ]]>
  </style>
 </defs>
 <g id="Layer_x0020_1">
  <metadata id="CorelCorpID_0Corel-Layer"/>
  <rect class="fil0" x="-2.98095" y="8.44856" width="24.2754" height="17.4129"/>
  <g id="_111514008">
   <polygon id="_173741768" class="fil1" points="13.7511,12.0053 15.4682,13.8729 16.239,13.7094 14.5498,11.8742 "/>
   <path id="_174278776" class="fil1" d="M12.5292 12.1919c0.0907402,0.170441 1.62648,1.9066 1.67892,1.9066 0.142083,0 0.714343,-0.110858 0.820567,-0.169791l-1.65824 -1.87974 -0.841244 0.142929z"/>
   <polygon id="_174282328" class="fil1" points="11.2325,12.3893 12.9083,14.3931 13.8292,14.2106 12.1076,12.257 "/>
   <polygon id="_174270184" class="fil2" points="5.12769,13.6943 6.84236,15.8916 7.85392,15.6479 6.1185,13.5328 "/>
   <path id="_174284368" class="fil2" d="M3.44749 13.9555l1.67748 2.27938 1.1451 -0.22815c-0.103811,-0.196169 -1.69883,-2.21648 -1.71972,-2.2282l-1.10285 0.176969z"/>
   <path id="_174284560" class="fil2" d="M1.7264 14.2377c0.141902,0.222094 1.68721,2.34143 1.71956,2.34143 0.323433,0 0.8455,-0.221465 1.18307,-0.22898 -0.106965,-0.202154 -1.7027,-2.2922 -1.71994,-2.30557l-1.18269 0.193122z"/>
   <polygon id="_174281656" class="fil1" points="16.6909,15.2524 18.5225,17.3489 19.3302,17.1061 17.4541,15.061 "/>
   <path id="_174282976" class="fil1" d="M15.4675 15.5488c0.125929,0.188055 1.83626,2.13717 1.87002,2.13717 0.126957,0 0.626327,-0.188197 0.801437,-0.22898 -0.13626,-0.203469 -1.79903,-2.099 -1.87002,-2.099 -0.120142,0 -0.719461,0.151492 -0.801437,0.190815z"/>
   <path id="_174281728" class="fil1" d="M14.2061 15.8463c0.131752,0.201579 1.84685,2.22126 1.87199,2.22126 0.199177,0 0.601016,-0.209134 0.839602,-0.22898l0.0319843 -0.0275118 -1.90004 -2.17819 -0.843535 0.213421z"/>
   <polygon id="_174280240" class="fil2" points="8.1054,17.5095 10.008,20.007 11.0648,19.6894 9.16699,17.2517 "/>
   <polygon id="_174274000" class="fil2" points="6.42388,17.9197 8.33131,20.5114 9.47893,20.1641 7.52977,17.649 "/>
   <polygon id="_174284464" class="fil2" points="4.7093,18.3501 6.61435,21.0469 7.83614,20.6617 5.92828,18.036 "/>
   <path id="_174280192" class="fil1" d="M5.92828 18.036l1.90786 2.62569 -1.22179 0.385287 -1.90505 -2.69686 1.21898 -0.31411zm1.60149 -0.386945l1.94917 2.51511 -1.14762 0.347283 -1.90743 -2.59174 1.10589 -0.270661zm1.63722 -0.397315l1.89782 2.43769 -1.05683 0.317571 -1.90258 -2.49745 1.06159 -0.257807zm-6.25791 -3.20709c0.0172362,0.013378 1.61297,2.10342 1.71994,2.30557 -0.337567,0.00751575 -0.859634,0.22898 -1.18307,0.22898 -0.0323425,0 -1.57765,-2.11934 -1.71956,-2.34143l1.18269 -0.193122zm1.64126 -0.266083c0.0208937,0.0117205 1.61591,2.03203 1.71972,2.2282l-1.1451 0.22815 -1.67748 -2.27938 1.10285 -0.176969zm1.56815 -0.245709l1.73542 2.11507 -1.01156 0.243654 -1.71467 -2.19722 0.990811 -0.1615zm-8.58791 6.48106l0 0.152665c2.74469,1.83791 7.39956,3.47286 11.907,3.47286 1.06415,0 2.13628,-0.0948819 3.08237,-0.237866 1.01024,-0.152685 1.82017,-0.430594 2.7185,-0.639886 -0.241039,-0.209508 -0.976657,-0.613004 -1.30519,-0.831961 -0.380618,-0.253677 -0.911846,-0.637146 -1.2232,-0.952118 -0.689843,-0.697846 -1.47879,-1.51288 -1.47879,-2.87187l0 -0.1145c0,-1.17625 0.496126,-2.08333 0.496126,-3.24388l0 -0.22898c0,-1.28329 -0.822189,-2.17626 -1.47889,-2.83359 -0.263614,-0.263866 -2.2557,-1.78421 -2.52828,-1.78421 -0.604295,0 -3.05028,1.21725 -3.5617,1.51405 -1.06135,0.615925 -2.04093,1.35978 -2.87846,2.1973 -0.928161,0.928177 -1.51776,1.70342 -2.23072,2.84504 -0.332898,0.533067 -0.566224,1.0787 -0.844654,1.67415 -0.157319,0.336465 -0.58322,1.75195 -0.674142,1.8828z"/>
  </g>
 </g>
</svg>
